<?xml version="1.0" encoding="iso-8859-1"?>
<!-- Generator: Adobe Illustrator 19.0.0, SVG Export Plug-In . SVG Version: 6.00 Build 0)  -->
<svg version="1.1" id="Capa_1" xmlns="http://www.w3.org/2000/svg" xmlns:xlink="http://www.w3.org/1999/xlink" x="0px" y="0px"
	 viewBox="0 0 512 512" style="enable-background:new 0 0 512 512;" xml:space="preserve">
<circle style="fill:#FFE17D;" cx="255.999" cy="256" r="248.499"/>
<path style="fill:#FFD164;" d="M292.073,468.427c-137.242,0-248.499-111.257-248.499-248.499c0-59.433,20.891-113.97,55.695-156.732
	C43.284,108.761,7.501,178.191,7.501,256.001c0,137.241,111.256,248.499,248.499,248.499c77.81,0,147.241-35.784,192.805-91.768
	C406.044,447.536,351.505,468.427,292.073,468.427z"/>
<path style="fill:#9C6846;" d="M256,303.86c-47.878,0-93.579-5.559-135.508-15.608c-5.431-1.302-10.112,4.372-8.436,10.285
	C131.393,366.8,188.467,416.322,256,416.322s124.608-49.521,143.944-117.784c1.675-5.913-3.005-11.587-8.436-10.285
	C349.579,298.302,303.877,303.86,256,303.86z"/>
<path style="fill:#7D5046;" d="M256.02,336.161c45.846,0,91.084-5.183,135.602-14.554c3.244-7.411,6.063-15.098,8.321-23.07
	c1.675-5.914-3.005-11.587-8.436-10.285c-41.928,10.049-87.63,15.608-135.508,15.608s-93.579-5.559-135.507-15.608
	c-5.431-1.301-10.112,4.372-8.436,10.285c2.257,7.968,5.076,15.652,8.318,23.06C164.905,330.976,210.159,336.161,256.02,336.161z"/>
<path style="fill:#E6646E;" d="M320.128,300.422c-20.83,2.222-42.236,3.438-64.129,3.438s-43.3-1.216-64.129-3.438v83.836
	c0,35.417,28.712,64.129,64.129,64.129s64.129-28.712,64.129-64.129V300.422z"/>
<path style="fill:#DC4655;" d="M191.871,300.422v32.375c21.244,2.182,42.627,3.365,64.149,3.365c21.51,0,42.879-1.183,64.109-3.361
	v-32.378c-20.829,2.222-42.236,3.438-64.129,3.438C234.107,303.86,212.7,302.644,191.871,300.422z"/>
<path d="M15.108,248.714c1.833-61.604,26.857-119.542,70.459-163.145c43.603-43.603,101.542-68.626,163.145-70.459
	c61.336-1.826,120.401,19.43,166.327,59.852c3.109,2.736,7.848,2.435,10.585-0.675c2.737-3.11,2.435-7.849-0.675-10.585
	C376.159,20.759,313.405-1.821,248.267,0.116c-65.44,1.947-126.988,28.528-173.305,74.846
	C28.644,121.28,2.063,182.827,0.115,248.268C-1.824,313.413,20.757,376.161,63.7,424.951c1.482,1.685,3.552,2.545,5.633,2.545
	c1.76,0,3.527-0.616,4.952-1.87c3.109-2.737,3.412-7.476,0.675-10.585C34.538,369.115,13.283,310.045,15.108,248.714z"/>
<path d="M448.3,87.052c-2.736-3.109-7.476-3.412-10.585-0.675c-3.109,2.736-3.412,7.476-0.675,10.585
	c40.421,45.925,61.677,104.994,59.852,166.326c-1.833,61.604-26.856,119.542-70.459,163.145s-101.541,68.626-163.145,70.459
	c-61.333,1.822-120.401-19.43-166.327-59.852c-3.108-2.736-7.848-2.435-10.585,0.675c-2.737,3.11-2.435,7.849,0.675,10.585
	c46.854,41.239,106.579,63.7,168.941,63.7c2.577,0,5.158-0.038,7.742-0.115c65.441-1.948,126.988-28.529,173.305-74.846
	c46.318-46.317,72.899-107.865,74.847-173.305C513.823,198.588,491.242,135.84,448.3,87.052z"/>
<path d="M108.555,285.049c-3.888,4.049-5.329,10.003-3.761,15.539c13.204,46.613,43.419,85.103,83.155,106.136
	c9.435,28.548,36.353,49.214,68.023,49.214s58.588-20.666,68.023-49.214c39.736-21.033,69.951-59.524,83.154-106.136
	c1.568-5.535,0.128-11.489-3.76-15.539c-3.594-3.744-8.695-5.271-13.641-4.085c-42.646,10.221-87.654,15.403-133.775,15.403
	s-91.129-5.183-133.774-15.403C117.248,279.778,112.149,281.305,108.555,285.049z M392.706,295.68
	c0.068,0.179,0.114,0.453,0.01,0.82c-10.882,38.419-34.269,70.753-65.184,90.775c0.041-0.987,0.075-1.976,0.075-2.973v-51.109
	c0-4.142-3.358-7.5-7.5-7.5s-7.5,3.358-7.5,7.5v51.109c0,31.229-25.407,56.636-56.637,56.636s-56.636-25.407-56.636-56.636v-51.109
	c0-4.142-3.358-7.5-7.5-7.5c-4.142,0-7.5,3.358-7.5,7.5v51.109c0,0.997,0.035,1.986,0.075,2.973
	c-30.914-20.021-54.302-52.356-65.185-90.775c-0.104-0.367-0.058-0.641,0.01-0.819c41.311,9.856,84.75,15.104,129.234,15.635v64.971
	c0,4.142,3.358,7.5,7.5,7.5c4.142,0,7.5-3.358,7.5-7.5v-64.971C307.956,310.782,351.393,305.535,392.706,295.68z"/>
<path d="M129.008,235.333c1.314,2.628,3.962,4.148,6.714,4.148c1.127,0,2.271-0.255,3.348-0.794l64.137-32.068
	c2.541-1.271,4.146-3.868,4.146-6.708s-1.605-5.438-4.146-6.708l-64.137-32.068c-3.705-1.853-8.209-0.351-10.062,3.354
	c-1.853,3.705-0.351,8.209,3.354,10.062l50.72,25.36l-50.72,25.36C128.657,227.123,127.156,231.628,129.008,235.333z"/>
<path d="M382.934,164.488c-1.852-3.705-6.357-5.208-10.062-3.354l-64.136,32.068c-2.541,1.271-4.146,3.867-4.146,6.708
	s1.605,5.438,4.146,6.708l64.136,32.068c1.077,0.539,2.221,0.794,3.348,0.794c2.751,0,5.4-1.52,6.714-4.148
	c1.853-3.705,0.351-8.209-3.354-10.062l-50.72-25.36l50.72-25.36C383.285,172.698,384.787,168.193,382.934,164.488z"/>
<g>
</g>
<g>
</g>
<g>
</g>
<g>
</g>
<g>
</g>
<g>
</g>
<g>
</g>
<g>
</g>
<g>
</g>
<g>
</g>
<g>
</g>
<g>
</g>
<g>
</g>
<g>
</g>
<g>
</g>
</svg>
